<svg width="57" height="58" viewBox="0 0 57 58" fill="none" xmlns="http://www.w3.org/2000/svg">
<g filter="url(#filter0_d_36_14)">
<rect width="48" height="50" transform="translate(4.5)" fill="white" fill-opacity="0.02"/>
<path d="M22.5 39.5833C12.5 42.7083 12.5 34.375 8.5 33.3333M36.5 45.8333V37.7708C36.575 36.7774 36.4462 35.7788 36.122 34.8412C35.7979 33.9037 35.2859 33.0488 34.62 32.3333C40.9 31.6042 47.5 29.125 47.5 17.75C47.4995 14.8413 46.4254 12.0442 44.5 9.9375C45.4117 7.39272 45.3472 4.57989 44.32 2.08333C44.32 2.08333 41.96 1.35416 36.5 5.16666C31.916 3.87254 27.084 3.87254 22.5 5.16666C17.04 1.35416 14.68 2.08333 14.68 2.08333C13.6528 4.57989 13.5883 7.39272 14.5 9.9375C12.5603 12.0598 11.485 14.8822 11.5 17.8125C11.5 29.1042 18.1 31.5833 24.38 32.3958C23.722 33.1041 23.2145 33.9488 22.8906 34.8748C22.5667 35.8009 22.4336 36.7876 22.5 37.7708V45.8333" stroke="#F5F5F5" stroke-width="4" stroke-linecap="round" stroke-linejoin="round"/>
</g>
<defs>
<filter id="filter0_d_36_14" x="0.5" y="0" width="56" height="58" filterUnits="userSpaceOnUse" color-interpolation-filters="sRGB">
<feFlood flood-opacity="0" result="BackgroundImageFix"/>
<feColorMatrix in="SourceAlpha" type="matrix" values="0 0 0 0 0 0 0 0 0 0 0 0 0 0 0 0 0 0 127 0" result="hardAlpha"/>
<feOffset dy="4"/>
<feGaussianBlur stdDeviation="2"/>
<feComposite in2="hardAlpha" operator="out"/>
<feColorMatrix type="matrix" values="0 0 0 0 0 0 0 0 0 0 0 0 0 0 0 0 0 0 0.25 0"/>
<feBlend mode="normal" in2="BackgroundImageFix" result="effect1_dropShadow_36_14"/>
<feBlend mode="normal" in="SourceGraphic" in2="effect1_dropShadow_36_14" result="shape"/>
</filter>
</defs>
</svg>
