<svg width="65" height="61" viewBox="0 0 65 61" fill="none" xmlns="http://www.w3.org/2000/svg">
<path d="M43.3334 20.3333C47.6432 20.3333 51.7764 21.94 54.8239 24.8C57.8714 27.6599 59.5834 31.5388 59.5834 35.5833V53.375H48.7501V35.5833C48.7501 34.2352 48.1794 32.9422 47.1636 31.9889C46.1477 31.0356 44.77 30.5 43.3334 30.5C41.8968 30.5 40.5191 31.0356 39.5033 31.9889C38.4874 32.9422 37.9167 34.2352 37.9167 35.5833V53.375H27.0834V35.5833C27.0834 31.5388 28.7955 27.6599 31.8429 24.8C34.8904 21.94 39.0236 20.3333 43.3334 20.3333Z" stroke="#F5F5F5" stroke-width="4" stroke-linecap="round" stroke-linejoin="round"/>
<path d="M16.2501 22.875H5.41675V53.375H16.2501V22.875Z" stroke="#F5F5F5" stroke-width="4" stroke-linecap="round" stroke-linejoin="round"/>
<path d="M10.8334 15.25C13.825 15.25 16.2501 12.9741 16.2501 10.1667C16.2501 7.35922 13.825 5.08333 10.8334 5.08333C7.84187 5.08333 5.41675 7.35922 5.41675 10.1667C5.41675 12.9741 7.84187 15.25 10.8334 15.25Z" stroke="#F5F5F5" stroke-width="4" stroke-linecap="round" stroke-linejoin="round"/>
</svg>
